<svg xmlns="http://www.w3.org/2000/svg" viewBox="0 0 320 51.60009"><g id="Layer_2" data-name="Layer 2"><g id="Layer_1-2" data-name="Layer 1"><path d="M184.85574,25.28228q0-11.36592.00267-22.73184c.00029-.57705.02169-1.15537.06546-1.73067a.90886.90886,0,0,1,.82014-.7699c.40309-.02783.80809-.03845,1.21224-.03863,5.66766-.0023,11.33553-.02935,17.00293.00978a31.03707,31.03707,0,0,1,8.89735,1.25327A20.78663,20.78663,0,0,1,223.619,8.78662a24.81334,24.81334,0,0,1,4.90647,12.24046,36.112,36.112,0,0,1-.11687,9.51167,25.8863,25.8863,0,0,1-2.61444,8.406,20.28972,20.28972,0,0,1-11.234,9.80849,29.39613,29.39613,0,0,1-6.38631,1.56121,39.46132,39.46132,0,0,1-5.53468.3276c-5.14711-.01374-10.29432-.00349-15.44148-.00685-.51944-.00033-1.03942-.0191-1.55816-.04744a.84555.84555,0,0,1-.70162-.672,5.22262,5.22262,0,0,1-.075-.68693c-.01248-.46242-.007-.92538-.007-1.38811Q184.85554,36.56143,184.85574,25.28228Zm17.32764-13.27169-.00069.02332c-.5781,0-1.1562-.001-1.73431.00017-2.08544.004-1.972-.1342-1.97869,1.97576-.0002.05782-.00009.11563-.00009.17345q0,11.188.00117,22.37589.00014.69333.02843,1.38654a.6599.6599,0,0,0,.62819.69016l.00068,0a40.204,40.204,0,0,0,7.0939-.21079,10.04913,10.04913,0,0,0,2.97525-.9,9.18054,9.18054,0,0,0,3.88254-3.35462,11.53465,11.53465,0,0,0,1.49326-3.49035,20.58718,20.58718,0,0,0,.15072-9.61765,15.194,15.194,0,0,0-1.26157-3.5888,9.15654,9.15654,0,0,0-5.78414-4.88906,10.94589,10.94589,0,0,0-2.72227-.49347Q203.56961,12.04973,202.18338,12.01059Z"/><path d="M91.6276,25.32543q0-11.37189.00187-22.74374.00032-.86683.04548-1.73343a.90108.90108,0,0,1,.79021-.79314,5.15265,5.15265,0,0,1,.51842-.0399c.34706-.00714.69431-.0055,1.04149-.00552q7.5512-.00038,15.10239.00318A38.97556,38.97556,0,0,1,115.68785.57,13.56666,13.56666,0,0,1,123.927,5.31988a11.04124,11.04124,0,0,1,2.49981,5.26311,14.13444,14.13444,0,0,1,.03094,5.3438,11.04636,11.04636,0,0,1-3.58658,6.38521c-1.34831,1.17718-1.23877,1.16311.167,1.89793a11.19894,11.19894,0,0,1,2.52453,1.82465,10.62447,10.62447,0,0,1,3.153,5.49124,15.67451,15.67451,0,0,1-2.345,12.59,8.60748,8.60748,0,0,1-1.86893,2.0404c-.82443.63459-1.63767,1.28906-2.50252,1.86469a14.77255,14.77255,0,0,1-6.14166,2.242,37.777,37.777,0,0,1-5.53485.37588q-8.24554-.00759-16.49113-.00491c-.51833-.00048-1.03738-.03582-1.55461-.0748a.80986.80986,0,0,1-.57845-.5859,3.79329,3.79329,0,0,1-.06-.51531c-.01021-.52069-.01057-1.04159-.01059-1.56241Q91.62717,36.6105,91.6276,25.32543Zm13.02631,9.23732h-.00118c0,.7499-.00172,1.49979.00075,2.24969.00116.346.00286.69226.01795,1.03781.02466.56551.26959.79133.883.81809.28793.01259.57653.01264.86483.013,1.03815.00146,2.07711.0256,3.11425-.00687.92033-.02884,1.83991-.10774,2.75748-.19056a4.75453,4.75453,0,0,0,1.956-.64727,3.327,3.327,0,0,0,1.75232-2.80805,9.42469,9.42469,0,0,0-.02181-1.55441,3.37448,3.37448,0,0,0-.29516-.98269,2.96107,2.96107,0,0,0-1.76759-1.56172,6.26307,6.26307,0,0,0-2.18913-.46344c-2.07551-.0161-4.151-.03756-6.22649-.05342a2.32915,2.32915,0,0,0-.34133.04629.64774.64774,0,0,0-.44219.47369c-.02664.28641-.05656.57381-.05886.861C104.64929,32.71683,104.65391,33.6398,104.65391,34.56275Zm.007-19.11979h-.00835c0,.231-.002.462.00039.693.00714.69275.00759,1.38575.02741,2.07819a.67131.67131,0,0,0,.62414.69632c1.443.01159,2.88722.04348,4.3288-.00175a7.36966,7.36966,0,0,0,1.86935-.33128,2.80545,2.80545,0,0,0,2.09055-2.49545,5.261,5.261,0,0,0-.02829-1.5522,2.54779,2.54779,0,0,0-1.50341-1.985,4.02024,4.02024,0,0,0-1.66349-.44155c-1.731-.02012-3.46207-.02608-5.19315-.03531a.63473.63473,0,0,0-.48071.43532,4.86356,4.86356,0,0,0-.06035.51448C104.65734,13.82608,104.66092,14.63454,104.66092,15.443Z"/><path d="M312.697,23.40051c.176.34242.527.43685.82829.59973a13.52568,13.52568,0,0,1,3.07549,2.23246,10.75528,10.75528,0,0,1,3.07751,5.71758,16.09293,16.09293,0,0,1-1.40921,10.462,11.71622,11.71622,0,0,1-3.36223,4.1378c-.63952.49473-1.29273.97434-1.96308,1.42616a14.65958,14.65958,0,0,1-6.12488,2.27482,34.86278,34.86278,0,0,1-5.18312.38588q-8.673-.00272-17.34612-.00148c-.34635-.00011-.69336-.01283-1.03885-.03688a.83233.83233,0,0,1-.6908-.67978,6.24037,6.24037,0,0,1-.06131-.68931c-.01046-.46241-.00675-.92521-.00675-1.38783q-.0003-22.55329.00223-45.10664.0002-.95229.05956-1.90421a.87707.87707,0,0,1,.79932-.78249c.34518-.02789.69268-.03688,1.03918-.037,5.31948-.002,10.63906-.01818,15.95841.00726a35.21486,35.21486,0,0,1,6.37923.58457,13.60332,13.60332,0,0,1,7.84253,4.44742,11.04177,11.04177,0,0,1,2.56711,4.85222,13.75845,13.75845,0,0,1,.08224,6.52541,11.3665,11.3665,0,0,1-3.72826,6.11381C313.19581,22.79589,312.809,22.97448,312.697,23.40051Zm-13.05076,6.96906-.001.0308c-.925,0-1.84994-.00525-2.77483.00316-.28694.00261-.57417.03686-.86017.06707a.5998.5998,0,0,0-.46375.4507,4.27069,4.27069,0,0,0-.05428.51545q-.00493,3.12218.00161,6.24433a1.31336,1.31336,0,0,0,.07114.50861,1.02836,1.02836,0,0,0,.32269.37148.5697.5697,0,0,0,.32924.09061c1.8489-.00305,3.69787-.00446,5.54658-.02745.46039-.00574.91935-.092,1.37987-.13052a4.86308,4.86308,0,0,0,1.655-.49018,3.5553,3.5553,0,0,0,1.85454-1.96951,4.74,4.74,0,0,0,.25719-2.38593,3.171,3.171,0,0,0-2.12381-2.72044,6.06495,6.06495,0,0,0-2.02178-.45364C301.72488,30.44569,300.68566,30.405,299.64626,30.36957Zm-4.18258-14.8545.02215.00053c0,.34522-.00294.69044.00064,1.03566.006.57517.00876,1.15051.02727,1.72532a.70385.70385,0,0,0,.68442.64014c.05737.00442.11486.01.17228.01018,1.26552.00349,2.53221.03956,3.79612-.004a9.58014,9.58014,0,0,0,2.04332-.29511,2.80591,2.80591,0,0,0,2.09881-1.86549,4.206,4.206,0,0,0,.06135-2.54736,2.56664,2.56664,0,0,0-1.56417-1.73087,4.51985,4.51985,0,0,0-1.67024-.39367q-2.50122-.01932-5.00253-.02854a1.105,1.105,0,0,0-.1655.0447.5895.5895,0,0,0-.42694.47895C295.51032,13.56188,295.48852,14.53852,295.46368,15.51507Z"/><path d="M.0006,25.29445q0-11.36984.00209-22.73973C.00293,1.9771.023,1.399.05308.82205a.8373.8373,0,0,1,.64845-.726A10.1396,10.1396,0,0,1,1.9078.01354q4.16543-.01041,8.33088-.004c1.967-.00007,3.93439.02361,5.901-.00638a59.17083,59.17083,0,0,1,6.4093.28237,20.54211,20.54211,0,0,1,4.41935.8557,15.1769,15.1769,0,0,1,9.45109,8.60813,18.92085,18.92085,0,0,1,1.56073,6.19313,18.25375,18.25375,0,0,1-1.88428,9.91685,13.93944,13.93944,0,0,1-8.25933,7.2325c-.27282.09377-.5565.15543-.83206.24182-.70938.22246-.771.47212-.27732,1.115.17615.22932.35806.45425.53829.68042q5.24524,6.583,10.48874,13.16747c.35926.4516.70469.91577,1.03019,1.39211a.62.62,0,0,1-.48518.9042c-.28747.02493-.57667.04187-.8651.04207q-6.07461.00375-12.14921.001c-.17354,0-.34736-.01122-.52058-.00466a1.35654,1.35654,0,0,1-1.18-.60864c-.24365-.3231-.48152-.65072-.717-.97991q-4.24084-5.92806-8.48345-11.85491c-.2999-.41813-.6445-.80436-.97481-1.2a.17865.17865,0,0,0-.1548-.02516c-.05108.01549-.11986.062-.13035.10683a3.139,3.139,0,0,0-.12112.66569c-.01263,1.15711-.00778,2.31442-.008,3.47164-.00051,2.83523.005,5.67051-.00613,8.50568a8.79272,8.79272,0,0,1-.127,1.37135.58242.58242,0,0,1-.46892.45865,3.19108,3.19108,0,0,1-.6831.087q-5.20677.00825-10.41356.00259a4.83421,4.83421,0,0,1-.5185-.03755.851.851,0,0,1-.74222-.826C.01011,49.191.00211,48.61234.002,48.03417Q-.00108,36.66433.0006,25.29445Zm12.9952-6.7317c0,1.67614-.006,3.3523.005,5.02835a4.457,4.457,0,0,0,.11981,1.02224c.03329.13609.214.2513.35045.34151a.67327.67327,0,0,0,.332.079,37.66534,37.66534,0,0,0,5.366-.13988,7.6379,7.6379,0,0,0,2.796-.87143,5.42763,5.42763,0,0,0,2.698-3.2447,7.70934,7.70934,0,0,0,.28179-3.59759A5.33312,5.33312,0,0,0,21.92007,13.006a9.30554,9.30554,0,0,0-1.44992-.56269,10.12038,10.12038,0,0,0-2.90861-.40507c-1.15574-.00654-2.31155-.00142-3.46732.00017-.11535.00016-.23074.00994-.346.017a.72007.72007,0,0,0-.7306.78589c-.01714.28823-.02113.57758-.02147.8664q-.00288,2.42751-.00033,4.855Z"/><path d="M83.5499,18.067c-.00006,4.33849.02661,8.67723-.01211,13.01538a36.11439,36.11439,0,0,1-.48131,5.86932c-1.15569,6.6581-5.10314,10.96418-11.2542,13.39847a19.787,19.787,0,0,1-6.9642,1.23653,25.72431,25.72431,0,0,1-6.3684-.63707,17.56325,17.56325,0,0,1-6.21656-2.56388,16.8954,16.8954,0,0,1-7.47028-12.17531,45.4938,45.4938,0,0,1-.31957-5.71058q.02193-13.88318.00742-27.76637c.00007-.57835-.0023-1.15729.02237-1.73484A.9829.9829,0,0,1,45.50788.028c.23059-.01491.46234-.01672.69355-.01678q5.0319-.0018,10.06382.00167a8.96384,8.96384,0,0,1,1.03524.06683A.80394.80394,0,0,1,57.9633.7855c.02729.577.04315,1.15516.04332,1.73283q.00393,12.40808.00511,24.81618.0021,2.42847.07661,4.85669a11.50542,11.50542,0,0,0,.55963,3.41128,8.99775,8.99775,0,0,0,.69531,1.58078,4.57619,4.57619,0,0,0,3.50111,2.29266,9.74487,9.74487,0,0,0,2.59207-.0041,4.46074,4.46074,0,0,0,3.71847-2.75827,7.143,7.143,0,0,0,.63965-2.3309c.06637-.98.13444-1.96248.13547-2.944q.015-14.14351.00618-28.287c0-.46278-.00879-.92594.00763-1.38814a6.65781,6.65781,0,0,1,.095-.85952.90872.90872,0,0,1,.91568-.86913C71.41629.012,71.87943.01084,72.342.01056q4.42461-.00293,8.84922-.0008c.347,0,.69415-.00225,1.041.0055.17276.00384.3456.02341.51747.04384a.85931.85931,0,0,1,.7182.66054,8.69838,8.69838,0,0,1,.07755,1.03472c.009,1.33041.00443,2.66092.00448,3.9914Q83.5501,11.9064,83.5499,18.067Z"/><path d="M235.39452,17.76164q.00009-7.80888.0015-15.61771c.0002-.46192.01014-.92434.03463-1.38555a.82323.82323,0,0,1,.68227-.69,5.30583,5.30583,0,0,1,.68994-.0543c3.52791-.00329,7.05587-.00941,10.58374.00168,1.24856.00393,1.51558.287,1.54294,1.53248.01016.46253.0038.92542.0038,1.38817q.00024,14.056-.00364,28.11191a16.39276,16.39276,0,0,0,.35635,3.78945,8.63035,8.63035,0,0,0,.77245,2.10966,4.66008,4.66008,0,0,0,3.20757,2.44869,7.47173,7.47173,0,0,0,3.94074-.14112,4.49389,4.49389,0,0,0,2.84787-2.60518,8.11643,8.11643,0,0,0,.67874-2.85454c.05611-1.09688.09984-2.19578.10077-3.29386q.0116-13.9692.00682-27.93836c.00022-.57722.01743-1.15563.05846-1.73122a.91993.91993,0,0,1,.81162-.77927c.34523-.0267.6923-.04061,1.03856-.04092q4.85811-.00447,9.71629.00137a7.59568,7.59568,0,0,1,1.20605.0788.77271.77271,0,0,1,.671.69989,5.16834,5.16834,0,0,1,.07569.68747c.01276.52031.00905,1.04105.00907,1.56165q.00054,12.84122-.00549,25.68249c-.00257,1.73409-.06242,3.46875-.12679,5.202a23.09155,23.09155,0,0,1-.8302,5.12618,15.88246,15.88246,0,0,1-4.6776,7.57492,18.06257,18.06257,0,0,1-10.04366,4.7089,25.56649,25.56649,0,0,1-10.64827-.70591,19.35646,19.35646,0,0,1-3.38834-1.31651,14.44307,14.44307,0,0,1-4.52493-3.446c-.60589-.69749-1.18542-1.42212-1.72616-2.17113a15.55521,15.55521,0,0,1-2.72446-6.86491,31.38915,31.38915,0,0,1-.34059-4.83966Q235.40466,24.87645,235.39452,17.76164Z"/><path d="M172.92362,50.6371q-2.68866.00006-5.37733-.00152c-.40416-.00082-.80917-.009-1.21212-.03737a.83662.83662,0,0,1-.689-.464,6.69958,6.69958,0,0,1-.40193-.9555c-.433-1.2564-.85213-2.51751-1.28022-3.77561-.14885-.43751-.29962-.87476-.46609-1.30572a1.01794,1.01794,0,0,0-.93447-.65683c-.22979-.021-.46183-.02381-.69285-.02387q-6.85175-.00216-13.70351-.00126c-.11563,0-.23127.00135-.3469.00265-1.18162.01316-1.28158.29577-1.61814,1.21058-.53868,1.46406-1.06625,2.93223-1.60934,4.39465a9.142,9.142,0,0,1-.48953,1.10617.86255.86255,0,0,1-.69146.46483c-.28683.02838-.57637.04048-.86473.04068q-5.63753.00374-11.275-.00268a8.3164,8.3164,0,0,1-1.02932-.09538.59167.59167,0,0,1-.38229-.52592,2.66692,2.66692,0,0,1,.09494-.67913c.2123-.59876.45476-1.187.69141-1.77691Q138.61694,27.68445,146.59,7.81471q1.22669-3.057,2.46323-6.10991c.12984-.32113.26513-.64093.41632-.95239a1.19972,1.19972,0,0,1,1.0932-.72553c.231-.00917.46229-.01593.69345-.016q3.81618-.00159,7.63232.00141a6.73112,6.73112,0,0,1,.864.04775.91282.91282,0,0,1,.70069.45743,11.69092,11.69092,0,0,1,.58656,1.25207q1.73961,4.34544,3.46355,8.69712,3.774,9.50652,7.545,19.01422,3.74121,9.42593,7.48177,18.85215c.19118.48241.35584.97628.51151,1.47152a.71915.71915,0,0,1-.53068.77647c-.4026.0289-.80652.05238-1.21.05364C176.50848,50.64021,174.71605,50.63706,172.92362,50.6371ZM155.04483,32.55093c1.04155,0,2.08312.00271,3.12467-.00175.28885-.00123.57781-.0202.86632-.03776.18447-.0112.4392-.30527.40468-.47753-.07924-.39566-.1471-.796-.26213-1.18171q-1.80908-6.0676-3.63561-12.13a7.92436,7.92436,0,0,0-.318-.80287c-.02057-.04844-.09167-.11842-.12334-.11087-.08858.02114-.20793.05634-.24481.12423a3.39782,3.39782,0,0,0-.272.63623Q152.684,24.88079,150.7948,31.196c-.06607.22075-.10174.45087-.14686.67757a.49625.49625,0,0,0,.406.63753c.28826.02007.57739.037.8662.0382,1.04151.00444,2.0831.00175,3.12466.00164Z"/></g></g></svg>