<?xml version="1.0" encoding="utf-8"?>
<!-- Generator: Adobe Illustrator 20.1.0, SVG Export Plug-In . SVG Version: 6.00 Build 0)  -->
<svg version="1.1" id="Layer_1" xmlns="http://www.w3.org/2000/svg" xmlns:xlink="http://www.w3.org/1999/xlink" x="0px" y="0px"
	 viewBox="0 0 118 54" style="enable-background:new 0 0 118 54;" xml:space="preserve">
<style type="text/css">
	.st0{fill:#0000FF;}
</style>
<title>Artboard 1</title>
<path class="st0" d="M15.7,8.3c0-0.7-0.1-1.3-0.4-1.9c-0.3-0.6-0.7-1-1.2-1.4c-0.5-0.4-1.1-0.7-1.7-0.8c-0.6-0.2-1.3-0.3-2-0.3
	c-0.6,0-1.2,0.1-1.8,0.2c-0.5,0.1-1,0.4-1.5,0.7C6.7,5.1,6.3,5.5,6,5.9c-0.3,0.5-0.4,1-0.4,1.5v0.2c0,0.6,0.1,1.1,0.4,1.6
	c0.3,0.5,0.7,0.9,1.1,1.1C7.7,10.7,8.4,11,9,11.1c0.9,0.2,1.8,0.4,2.6,0.5c1.9,0.2,3.7,0.9,5.2,2.1c1.1,1.1,1.7,2.6,1.7,4.1v0.4
	c0,0.9-0.2,1.8-0.5,2.6c-0.3,0.8-0.8,1.5-1.4,2.1c-0.7,0.6-1.5,1.1-2.4,1.4c-1.1,0.3-2.2,0.5-3.3,0.5c-1.3,0-2.6-0.2-3.8-0.7
	c-1-0.4-2-1-2.8-1.7c-0.7-0.7-1.3-1.6-1.7-2.6c-0.4-1-0.6-2.1-0.5-3.2v-1h2.7v0.8c-0.1,1.7,0.4,3.3,1.6,4.5c1.3,1,2.9,1.6,4.5,1.5
	c1.4,0.1,2.7-0.3,3.8-1.1c0.8-0.7,1.3-1.8,1.3-2.9V18c0.1-1.1-0.4-2.1-1.3-2.7c-1.3-0.7-2.7-1.2-4.2-1.3c-1-0.1-2.1-0.4-3.1-0.7
	c-0.8-0.3-1.6-0.7-2.3-1.2c-0.6-0.5-1.1-1.1-1.5-1.8C3.1,9.5,2.9,8.6,3,7.8V7.4c0-0.8,0.2-1.6,0.5-2.4C3.8,4.3,4.4,3.6,5,3.1
	c0.7-0.6,1.5-1,2.4-1.2c1-0.3,2-0.4,3-0.4c1.2,0,2.3,0.2,3.4,0.5c0.9,0.3,1.8,0.8,2.5,1.5C17,4,17.5,4.7,17.9,5.6
	c0.4,0.8,0.5,1.7,0.5,2.6v1.3h-2.7L15.7,8.3z"/>
<path class="st0" d="M22.9,1.8h14.3v2.5h-5.8v17.5h5.8v2.5H22.9v-2.5h5.8V4.3h-5.8V1.8z"/>
<path class="st0" d="M47.6,13.5h10v10.8h-2.5v-2.7h-0.4c-0.4,1-1.1,1.8-1.9,2.3c-1,0.6-2.1,0.9-3.2,0.9c-2.2,0.1-4.3-0.8-5.7-2.4
	c-1.4-1.6-2.1-3.9-2.1-6.9v-5c-0.2-2.4,0.6-4.9,2.1-6.8c1.5-1.6,3.6-2.5,5.8-2.4c1.2,0,2.3,0.2,3.4,0.6c0.9,0.4,1.8,1,2.5,1.7
	c0.7,0.8,1.2,1.7,1.5,2.6c0.4,1,0.5,2.1,0.5,3.2V10h-2.7V9.6c0-0.7-0.1-1.4-0.3-2.1c-0.2-0.7-0.5-1.3-0.9-1.8c-0.4-0.5-1-1-1.6-1.2
	c-0.7-0.3-1.6-0.5-2.4-0.5c-1.5-0.1-3,0.6-3.9,1.9c-0.9,1.5-1.4,3.2-1.3,5v4.6c-0.1,1.8,0.3,3.6,1.3,5.1c0.9,1.2,2.5,1.9,4,1.8
	c1.4,0.1,2.8-0.5,3.8-1.5c1-1.2,1.5-2.8,1.4-4.3v-0.4h-7.4V13.5z"/>
<path class="st0" d="M73.8,23.2h0.4V1.8h2.7v22.5h-5.4L65,3h-0.4v21.4h-2.7V1.8h5.4L73.8,23.2z"/>
<path class="st0" d="M93.9,18.8h-9.7l-1.6,5.6h-2.9l6.8-22.5h5.1l6.8,22.5h-2.9L93.9,18.8z M88.9,3L85,16.2h8.2L89.3,3H88.9z"/>
<path class="st0" d="M101.7,1.8h2.7v20h11.8v2.5h-14.5V1.8z"/>
<path class="st0" d="M15.7,36.3c0-0.7-0.1-1.3-0.4-1.9c-0.3-0.5-0.7-1-1.2-1.4c-0.5-0.4-1.1-0.7-1.7-0.8c-0.6-0.2-1.3-0.3-2-0.3
	c-0.6,0-1.2,0.1-1.8,0.2c-0.5,0.1-1,0.4-1.5,0.7c-0.4,0.3-0.8,0.7-1,1.1c-0.3,0.5-0.4,1-0.4,1.5v0.2c0,0.5,0.1,1.1,0.3,1.6
	c0.3,0.5,0.7,0.9,1.2,1.2c0.6,0.3,1.2,0.6,1.9,0.8c0.9,0.2,1.8,0.4,2.6,0.5c1.9,0.2,3.7,0.9,5.2,2.1c1.1,1.1,1.7,2.6,1.7,4.1v0.4
	c0,0.9-0.2,1.8-0.5,2.7c-0.3,0.8-0.8,1.5-1.5,2.1c-0.7,0.6-1.5,1.1-2.4,1.3c-1.1,0.3-2.2,0.5-3.3,0.5c-1.3,0-2.6-0.2-3.8-0.7
	c-1-0.4-2-1-2.8-1.8c-0.7-0.7-1.3-1.6-1.7-2.6c-0.4-1-0.6-2.1-0.5-3.2v-1h2.7v0.8c-0.1,1.6,0.5,3.2,1.6,4.4c1.3,1,2.9,1.6,4.5,1.5
	c1.4,0.1,2.7-0.3,3.8-1.1c0.8-0.7,1.3-1.8,1.3-2.9V46c0.1-1.1-0.4-2.1-1.3-2.7c-1.3-0.8-2.7-1.2-4.2-1.3c-1-0.1-2.1-0.4-3.1-0.7
	c-0.8-0.3-1.6-0.7-2.3-1.2c-0.6-0.5-1.1-1.1-1.5-1.8c-0.4-0.8-0.5-1.6-0.5-2.5v-0.4c0-0.8,0.2-1.7,0.5-2.4C3.9,32.2,4.4,31.6,5,31
	c0.7-0.6,1.5-1,2.3-1.2c1-0.3,2-0.4,3-0.4c1.2,0,2.3,0.2,3.4,0.5c0.9,0.3,1.8,0.8,2.6,1.5c0.7,0.6,1.2,1.3,1.6,2.2
	c0.4,0.8,0.5,1.7,0.5,2.6v1.3h-2.7L15.7,36.3z"/>
<path class="st0" d="M22.1,38.6c-0.2-2.4,0.6-4.9,2.1-6.8c1.5-1.6,3.6-2.5,5.8-2.4c2.2-0.1,4.3,0.8,5.8,2.4c1.5,1.9,2.3,4.3,2.2,6.8
	v5c0,3-0.7,5.3-2.1,6.8c-1.5,1.6-3.7,2.5-5.9,2.4c-2.2,0.1-4.3-0.8-5.8-2.4c-1.4-1.6-2.1-3.8-2.1-6.8V38.6z M30,50.3
	c1.6,0.1,3.1-0.6,4-1.8c0.9-1.5,1.4-3.3,1.3-5.1v-4.6c0-0.9-0.1-1.9-0.3-2.8c-0.2-0.8-0.5-1.5-1-2.2c-0.4-0.6-1-1.1-1.6-1.4
	c-1.4-0.7-3.1-0.7-4.5,0c-0.6,0.3-1.2,0.8-1.6,1.4c-0.5,0.7-0.8,1.4-1,2.2c-0.2,0.9-0.3,1.9-0.3,2.8v4.6c-0.1,1.8,0.3,3.6,1.3,5.1
	C27,49.7,28.5,50.4,30,50.3z M28,41.1c0-1.2,0.9-2.1,2.1-2.1c1.2,0,2.1,0.9,2.1,2.1s-0.9,2.1-2.1,2.1c-0.6,0-1.1-0.2-1.5-0.6
	C28.2,42.1,28,41.6,28,41.1z"/>
<path class="st0" d="M44.7,29.8v14.9c-0.1,1.5,0.4,3,1.3,4.1c1,1,2.3,1.5,3.7,1.4c1.4,0.1,2.8-0.4,3.8-1.4c0.9-1.2,1.4-2.6,1.3-4.1
	V29.8h2.7v14.9c0.2,2.2-0.6,4.4-2.1,6c-1.5,1.4-3.6,2.2-5.7,2.1c-2.1,0.1-4.1-0.6-5.7-2.1c-1.5-1.6-2.2-3.8-2.1-6V29.8H44.7z"/>
<path class="st0" d="M73.8,51.2h0.4V29.8h2.7v22.5h-5.4L65,31h-0.4v21.3h-2.7V29.8h5.4L73.8,51.2z"/>
<path class="st0" d="M81.6,29.8H89c2.8,0,4.8,0.7,6.1,2c1.3,1.3,1.9,3.5,1.9,6.4V44c0,2.9-0.6,5-1.9,6.4c-1.3,1.3-3.3,2-6.1,2h-7.4
	v-2.5h1.9V32.3h-1.9V29.8z M88.6,49.8c0.9,0,1.7-0.1,2.6-0.3c0.7-0.2,1.3-0.5,1.8-1c0.5-0.5,0.8-1.2,1-1.8c0.2-1,0.4-1.9,0.3-2.9
	v-5.4c0-1-0.1-2-0.3-2.9c-0.2-0.7-0.5-1.3-1-1.8c-0.5-0.5-1.1-0.8-1.8-1c-0.8-0.2-1.7-0.3-2.6-0.3h-2.4v17.5H88.6z"/>
<path class="st0" d="M105,34.4c0,0.7,0.4,1.4,1,1.8c1.1,0.5,2.3,0.8,3.6,0.8c1.5,0,3,0.5,4.3,1.3c1,0.8,1.5,2,1.5,3.2v0.2
	c0,0.7-0.2,1.4-0.5,2.1c-0.3,0.6-0.7,1.2-1.3,1.6c-0.6,0.5-1.3,0.8-2,1c-1.9,0.5-3.9,0.4-5.8-0.2c-0.8-0.3-1.6-0.7-2.2-1.3
	c-0.6-0.5-1-1.2-1.3-1.9c-0.3-0.7-0.5-1.4-0.5-2.1l2.4-0.6c0.1,1.1,0.6,2.2,1.4,2.9c0.9,0.8,2.1,1.2,3.3,1.1c1,0,2-0.2,2.8-0.7
	c0.7-0.4,1.1-1.1,1.1-1.9c0.1-0.8-0.4-1.6-1.1-1.9c-1.1-0.5-2.3-0.7-3.4-0.7c-1.5,0-3-0.5-4.2-1.3c-1-0.7-1.6-1.9-1.5-3.2v-0.2
	c0-0.7,0.1-1.4,0.5-2c0.3-0.6,0.8-1.1,1.3-1.4c0.6-0.4,1.2-0.7,1.8-0.9c0.7-0.2,1.4-0.3,2.2-0.3c0.9,0,1.9,0.1,2.8,0.4
	c0.7,0.3,1.4,0.6,2,1.1c0.5,0.4,0.9,1,1.2,1.6c0.3,0.6,0.5,1.2,0.6,1.8l-2.4,0.6c-0.1-0.9-0.5-1.8-1.2-2.4c-0.8-0.6-1.8-0.9-2.8-0.9
	c-0.4,0-0.9,0.1-1.3,0.2c-0.4,0.1-0.8,0.2-1.1,0.4c-0.3,0.2-0.6,0.4-0.8,0.7C105.1,33.6,105,34,105,34.4z"/>
</svg>
